<?xml version="1.0" encoding="utf-8" ?><svg xmlns="http://www.w3.org/2000/svg" xmlns:xlink="http://www.w3.org/1999/xlink" width="488" height="512" viewBox="0 0 488 512"><path fill="#F3EDE6" d="M148.222 229.844L147.892 229.944C140.644 232.097 130.169 230.709 123.591 227.017C116.673 223.135 111.581 216.662 109.437 209.025C106.013 196.613 109.164 181.146 115.71 170.248C144.232 122.813 219.016 107.765 266.185 133.964C293.902 149.359 301.413 182.534 285.588 209.438C274.601 228.115 249.408 244.615 227.34 244.658C225.857 251.12 223.435 262.561 221.403 268.726C225.425 269.005 245.334 269.288 247.525 267.338C245.462 260.739 242.895 254.31 240.83 247.712C240.531 246.757 240.224 245.809 239.843 244.883C245.78 243.718 249.714 241.355 254.804 239.676C256.45 244.399 259.278 251.502 260.425 256.088C269.991 243.637 289.561 230.022 303.695 223.334C307.609 221.481 311.776 219.91 315.739 218.213C326.621 201.069 339.772 179.688 361.005 174.791C369.507 172.83 384.894 172.628 387.206 183.895C388.236 188.914 385.315 196.34 378.803 192.7C377.987 192.244 377.37 191.34 377.095 190.417C377.739 187.148 381.368 192.653 384.042 185.179C382.01 178.298 374.879 175.655 368.36 177.599C359.163 180.342 353.144 189.471 349.539 197.807C348.71 199.724 344.253 211.32 344.484 212.335C345.878 212.686 345.663 212.146 346.778 212.052C360.464 210.903 386.474 207.832 392.215 224.269C393.191 227.064 392.55 232.231 390.864 234.582C381 249.004 358.177 253.57 342.247 257.978C340.926 258.344 335.406 259.218 335.15 259.924C334.315 262.224 334.249 267.51 333.962 270.173C331.476 293.919 330.186 319.1 336.975 342.264C340.688 354.933 349.333 367.58 361.252 373.537C378.904 382.358 402.945 374.87 411.456 356.843C412.121 355.436 414.305 349.24 415.298 348.743C418.222 352.731 408.819 368.336 404.349 370.901C398.782 374.096 390.305 378.964 383.809 379.482C374.735 382.136 365.59 380.164 356.776 377.613C356.061 377.341 355.362 377.129 354.635 376.896L352.73 376.122C351.64 375.624 350.536 375.065 349.457 374.537C311.038 353.602 313.267 304.166 317.514 266.849C317.579 266.279 317.956 263.934 317.742 263.614C313.425 264.403 308.969 265.401 304.607 266.166C301.654 266.684 293.862 267.794 291.441 268.693C287.795 276.022 282.808 283.73 278.865 290.978C277.34 293.783 274.847 297.387 273.618 300.194C275.937 314.886 276.746 330.159 269.403 343.781C265.002 351.945 253.128 355.795 251.007 344.006C249.227 334.109 256.363 319.546 262.016 311.339C259.299 300.397 254.965 289.721 251.596 278.961C251.109 277.406 250.598 276.077 250.284 274.457C244.004 285.595 237.856 297.529 234.623 309.986C233.162 315.616 231.763 323.833 234.806 329.297C235.077 329.784 235.173 329.702 235.137 330.336C232.892 332.885 230.195 328.514 229.415 326.708C227.688 322.715 228.098 317.929 228.874 313.757C230.836 303.201 235.282 292.765 240.561 283.468C241.968 280.994 243.413 278.54 244.894 276.108C245.786 274.66 247.464 272.277 248.013 270.858C247.313 270.634 240.243 271.62 238.884 271.73C232.694 272.229 226.591 272.119 220.409 271.656C219.55 277.081 215.456 289.776 213.772 295.256C210.618 305.832 207.2 316.327 203.521 326.733C201.988 331.039 199.161 338.903 196.987 342.839C203.338 345.884 206.642 348.721 211.492 353.605C216.389 354.991 221.03 354.84 225.753 355.786C234.024 357.442 243.112 359.897 250.992 362.839C261.93 366.957 272.673 371.574 283.187 376.676C312.072 390.5 347.673 410.759 380.998 403.365C395.688 400.105 409.352 390.2 417.154 377.215C425.65 363.208 428.213 346.393 424.276 330.492C421.451 319.453 416.237 311.056 406.296 305.007C399.73 301.012 389.572 299.812 382.253 301.813C376.205 303.466 371.094 307.514 368.101 313.022C365.235 318.187 364.288 326.269 365.982 332.02C367.218 336.275 370.117 339.851 374.024 341.94C377.09 343.591 380.435 344.071 383.86 343.155C388.179 341.999 388.49 338.86 390.47 335.174L390.916 335.137C391.499 335.904 391.692 337.393 391.632 338.328C391.338 342.947 389.042 344.985 385.989 347.802C380.318 352.596 371.432 350.79 366.311 345.993C361.274 341.733 357.979 335.82 357.477 329.194C355.059 297.084 395.95 289.516 416.181 307.601C434.537 324.01 436.158 352.432 425.505 373.486C424.152 376.16 419.456 384.812 417.423 386.274C414.407 390.235 407.232 396.947 402.724 399.033C399.599 400.479 391.81 403.631 388.525 404.358C387.457 404.771 384.221 405.514 382.896 405.816C365.125 409.875 342.249 406.763 325.34 400.326C306.141 393.969 288.254 385.948 270.075 377.225C255.289 370.13 238.19 364.045 222.261 360.405C221.137 360.148 216.464 359.003 215.625 359.278C219.614 365.505 221.158 372.479 219.878 379.826C218.851 385.727 211.36 394.684 205.362 389.196L205.369 388.794C206.68 388.231 209.009 388.453 209.739 388.059C220.873 382.043 216.188 366.591 212.333 359.551C211.474 358.534 211.497 358.69 210.043 358.321L204.103 357.821C199.499 357.527 194.885 357.427 190.273 357.521C180.856 375.427 165.922 392.758 145.992 398.97C131.665 403.436 109.73 402.208 104.504 385.014C102.481 378.359 103.689 371.491 106.91 365.483C113.353 352.942 129.82 344.219 142.752 340.145C155.893 336.006 171.909 334.676 185.265 338.346C186.702 338.742 189.758 339.606 191.013 340.264C192.525 336.228 194.922 331.369 196.69 327.286C200.152 319.455 203.299 311.489 206.123 303.406C208.6 296.229 210.899 288.993 213.018 281.703C213.768 279.147 215.276 273.044 216.105 271.076C209.498 271.506 190.049 266.705 183.671 263.916C181.36 271.019 177.821 279.063 174.627 285.801C164.402 307.376 150.945 328.545 129.242 340.036C106.331 352.166 73.2124 349.347 60.8057 323.781C49.7967 301.094 59.8161 271.158 82.9135 260.601C98.384 253.39 124.94 253.507 133.194 271.015C143.307 292.464 119.655 312.079 99.2525 304.222C94.8388 302.522 90.4079 298.021 90.944 293.183L91.3249 293.111C92.9367 294.389 94.2191 297.41 95.3505 298.939C96.7852 300.877 101.98 302.669 104.253 303.116C109.597 304.117 115.12 302.977 119.631 299.942C124.789 296.408 128.315 290.952 129.419 284.798C130.311 279.735 129.461 272.334 126.141 268.243C114.555 253.964 91.8815 256.534 78.3807 266.753C69.2619 273.517 63.2424 283.082 60.7406 294.133C55.4065 317.695 68.9581 339.585 93.3207 343.322C133.412 349.472 151.581 301.819 163.475 272.131C165.349 267.454 168.035 261.122 169.259 256.411C160.948 252.245 151.538 239.844 148.571 230.95C148.447 230.584 148.331 230.215 148.222 229.844ZM211.321 162.713C219.27 151.867 229.444 141.294 242.821 137.399C243.265 137.27 243.808 137.409 244.188 137.649C244.384 138.111 244.571 138.448 244.201 138.926C242.785 140.753 240.451 141.971 238.799 143.603C231.956 150.366 226.741 158.639 222.304 167.123C210.111 190.515 202.088 215.64 192.73 240.218C190.128 247.039 187.478 254.649 184.582 261.283C187.419 262.026 191.231 263.455 194.104 264.253C198.168 265.383 213.515 268.703 216.617 267.893C217.538 267.653 222.211 247.061 222.557 245.116C219.876 245.747 216.28 245.364 213.429 245.149C207.791 244.699 198.858 242.302 197.498 235.855C196.522 231.226 199.264 227.054 204.01 226.43C206.625 226.087 209.951 227.073 211.095 229.609L211 230.225C209.645 231.051 208.781 230.313 207.384 229.713C205.991 230.309 204.113 230.912 203.584 232.463C200.322 242.007 217.86 242.848 223.403 241.944C223.754 239.192 224.463 236.53 224.874 233.801C226.499 223.015 228.531 212.434 225.447 201.673C223.482 194.816 220.997 188.033 217.222 181.935C218.676 178.701 220.438 174.529 222.168 171.537C233.987 184.268 239.928 199.706 245.981 215.724C247.148 218.81 249.788 225.466 250.443 228.531C246.439 231.277 241.593 234.661 237.072 236.308C234.822 231.805 233.319 224.293 231.015 219.362C230.857 226.282 229.302 234.734 227.863 241.539L228.165 241.416C232.298 239.783 235.888 239.193 240.309 237.179C275.912 220.964 292.567 161.896 256.585 137.204C255.795 136.662 251.524 134.188 251.259 133.894C242.326 129.859 238.354 128.045 228.477 126.257C199.943 122.387 171.805 128.053 148.491 145.55C132.687 157.41 120.257 173.624 117.46 193.6C114.538 213.835 125.329 231.83 147.646 227.076C146.943 225.13 146.546 222.151 146.327 220.04C145.199 208.795 147.105 197.454 151.847 187.195C161.561 166.453 180.649 152.394 204.564 159.787C207.03 160.549 209.017 161.789 211.321 162.713ZM174.26 368.844C176.925 365.225 179.001 361.631 181.54 358.049C179.02 358.525 176.467 358.762 173.952 359.247C163.825 361.2 154.451 364.348 145.743 369.946C143.877 371.145 135.668 377.811 134.371 377.668C133.975 376.192 137.759 372.95 138.892 372.065C151.168 362.47 167.749 356.527 183.141 354.824C185.443 350.651 187.695 346.324 190.069 342.217L189.784 342.163C186.949 341.604 183.824 340.322 180.75 339.711C175.047 338.577 164.443 337.97 158.611 338.578C140.078 343.192 121.332 349.045 110.579 366.117C104.55 375.69 105.281 389.828 115.947 395.229C139.216 407.012 162.115 385.879 174.26 368.844ZM150.055 226.761C153.541 225.345 156.533 224.111 159.797 221.828C167.205 216.646 174.627 206.294 171.859 196.806C171.368 195.124 167.559 195.021 168.501 192.885C169.717 188.638 175.493 191.923 176.29 194.797C178.92 204.272 173.362 213.957 166.595 220.28C162.119 224.414 156.764 227.48 150.931 229.245C155.23 239.721 160.817 247.557 170.525 253.845C174.109 244.076 177.776 234.337 181.526 224.631C187.218 209.628 192.908 194.763 200.563 180.602C202.306 177.379 205 172.205 207.163 169.276C201.474 164.27 195.03 161.246 187.283 161.875C160.971 164.137 146.507 196.347 149.185 219.944C149.446 222.241 149.798 224.483 150.055 226.761ZM271.65 291.437L272.472 294.526C274.014 289.981 278.254 283.46 280.668 279.055C281.801 276.989 284.867 271.368 286.084 269.608L282.684 269.892L265.877 271.446C267.235 275.942 271.138 287.029 271.65 291.437ZM263.117 316.422C259.014 324.226 253.35 334.057 254.211 343.317C254.356 344.873 255.386 347.136 256.818 347.945C261.435 349.328 263.614 343.951 264.496 340.335C266.349 332.741 265.16 324.166 263.354 316.658L263.117 316.422ZM361.432 249.819C372.254 246.131 387.671 238.925 390.466 226.647C389.031 222.024 386.966 218.879 382.582 216.499C376.694 213.302 364.707 213.023 357.963 213.608C354.294 213.779 346.394 214.833 343.66 214.652C340.604 226.893 338.11 238.895 336.264 251.384C335.985 253.272 335.696 255.246 335.307 257.106C344.916 255.017 352.137 253.002 361.432 249.819ZM328.008 217.305C325.395 217.921 323.2 218.454 320.625 219.271C319.079 220.929 315.527 227.373 314.196 229.623C308.803 238.755 303.476 247.925 298.215 257.133C297.534 258.306 293.254 265.221 293.263 265.817C293.753 266.012 293.559 265.997 294.062 265.971C298.265 265.369 302.443 264.609 306.589 263.693C310.576 262.808 314.371 261.665 318.475 261.316C319.184 257.803 319.572 254.491 320.219 251.029C321.728 242.746 323.618 234.538 325.884 226.43C326.592 223.979 327.7 219.97 328.655 217.679L328.584 217.282L328.008 217.305ZM208.408 353.898C203.327 349.803 202.241 348.419 196.28 344.847C195.415 347.292 193.378 351.547 192.073 353.836C196.226 353.489 199.887 353.5 204.063 353.569C205.513 353.646 206.962 353.756 208.408 353.898ZM329.867 214.507C332.467 207.713 335.536 200.918 339.134 194.575C339.657 193.652 341.261 191.686 341.425 190.965L341.113 190.663C336.537 194.591 325.766 209.794 322.778 215.516L322.851 215.856L322.984 215.938C325.249 215.49 327.635 215.059 329.867 214.507ZM261.937 259.354C262.694 262.502 264.076 265.355 264.661 267.93C264.907 268.438 265.039 268.982 265.67 269.042C271.929 269.635 281.218 267.316 287.087 267.413C294.883 254.809 301.78 241.387 309.526 228.72C310.121 227.746 313.136 222.918 313.154 222.305L312.867 222.26C295.379 228.443 273.335 244.756 261.937 259.354Z"/><path fill="#D6D0CF" d="M213.533 357.991C215.425 358.189 217.242 358.174 219.1 358.352C227.56 359.164 235.604 362.375 243.53 365.069C256.992 369.646 269.711 375.662 282.646 381.432L301.839 389.767C308.748 392.777 318.84 395.851 324.882 398.924C325.245 399.57 325.209 399.584 325.34 400.326C306.141 393.969 288.254 385.948 270.075 377.225C255.289 370.13 238.19 364.045 222.261 360.405C221.137 360.148 216.464 359.003 215.625 359.278C214.707 358.483 214.649 358.381 213.533 357.991Z"/><path fill="#D6D0CF" d="M388.525 404.358C392.565 401.394 395.764 400.552 399.865 398.278C402.875 396.36 405.682 394.137 408.626 392.108C411.518 390.115 414.67 388.438 417.423 386.274C414.407 390.235 407.232 396.947 402.724 399.033C399.599 400.479 391.81 403.631 388.525 404.358Z"/><path fill="#B9ADAA" d="M366.311 345.993C369.32 345.996 369.52 346.991 372.011 347.679C374.785 348.445 378.837 348.648 381.718 348.322C383.263 348.147 384.411 347.782 385.989 347.802C380.318 352.596 371.432 350.79 366.311 345.993Z"/><path fill="#B9ADAA" d="M356.776 377.613C358.514 377.681 360.42 377.851 362.098 377.461C370.472 379.757 375.205 379.71 383.809 379.482C374.735 382.136 365.59 380.164 356.776 377.613Z"/><path fill="#E2DCD6" d="M204.103 357.821C205.893 356.096 209.212 356.466 211.384 357.247C210.967 357.23 210.588 357.218 210.171 357.183L209.682 357.522L209.326 357.34C209.765 357.779 209.877 357.736 210.043 358.321L204.103 357.821Z"/><path fill="#D6D0CF" d="M355.707 375.808C357.833 376.377 359.963 376.928 362.098 377.461C360.42 377.851 358.514 377.681 356.776 377.613C356.061 377.341 355.362 377.129 354.635 376.896C354.983 376.513 355.34 376.171 355.707 375.808Z"/><path fill="#E2DCD6" d="M349.457 374.537C351.654 374.14 352.261 374.455 354.306 375.193L355.707 375.808C355.34 376.171 354.983 376.513 354.635 376.896L352.73 376.122C351.64 375.624 350.536 375.065 349.457 374.537Z"/><path fill="#D6D0CF" d="M211.384 357.247L213.267 357.9C213.052 358.275 212.49 359.203 212.333 359.551C211.474 358.534 211.497 358.69 210.043 358.321C209.877 357.736 209.765 357.779 209.326 357.34L209.682 357.522L210.171 357.183C210.588 357.218 210.967 357.23 211.384 357.247Z"/><path fill="#D6D0CF" d="M228.477 126.257C232.779 125.044 242.699 128.12 246.597 130.341C247.745 130.996 250.707 132.781 251.259 133.894C242.326 129.859 238.354 128.045 228.477 126.257Z"/></svg>